<svg width="32" height="32" viewBox="0 0 32 32" fill="none" xmlns="http://www.w3.org/2000/svg">
  <path d="M4.77983 18.6679C3.48011 16.6618 3.79768 13.8261 5.78783 12.2792C5.88082 12.2069 5.91205 12.1429 5.88522 12.0173C5.58047 10.5909 5.92435 9.32911 6.91574 8.24596C7.44097 7.67212 8.08741 7.27544 8.84066 7.05204C8.94658 7.02062 9.02793 6.97993 9.07018 6.86554C9.57872 5.48869 10.6402 4.70734 12.0025 4.26272C12.868 3.98028 13.7489 3.89536 14.6375 4.15867C15.4174 4.38977 15.9864 4.88625 16.4166 5.58284C16.5834 5.34792 16.7285 5.11343 16.931 4.92358C17.9833 3.93701 19.4844 3.80389 20.736 4.62159C21.741 5.27813 22.3396 6.19628 22.4409 7.39915C22.4426 7.41982 22.4501 7.44076 22.4481 7.46091C22.4111 7.82369 22.5947 7.99916 22.9202 8.16742C23.5951 8.51629 23.951 9.12971 24.119 9.84867C24.1435 9.95346 24.1749 10.0168 24.289 10.0524C25.5851 10.4577 26.4097 11.3567 26.9207 12.5521C27.3071 13.4561 27.4033 14.3952 27.1073 15.3505C27.0767 15.4493 27.1065 15.5243 27.163 15.6011C27.8868 16.5855 28.0853 17.7124 27.969 18.8799C27.7788 20.7873 26.8684 22.2854 25.1666 23.2777C25.0726 23.3325 25.0324 23.4001 25.0111 23.5049C24.6925 25.0696 23.7095 26.0084 22.1578 26.391C21.9561 26.4408 21.8341 26.5309 21.7156 26.6914C21.0554 27.5851 20.157 28.0513 19.0318 27.9867C17.9586 27.9251 17.14 27.3736 16.5007 26.546C16.4585 26.4914 16.4186 26.435 16.3687 26.3674C16.2716 26.4274 16.224 26.521 16.1611 26.599C15.4029 27.5389 14.4238 28.042 13.1942 27.9973C11.4108 27.9324 9.86879 26.6757 9.5317 25.2271C9.48936 25.0452 9.4325 24.981 9.2319 24.9513C7.32892 24.6691 5.85626 23.3097 5.42971 21.4623C5.28598 20.8398 5.27481 20.2136 5.41558 19.5899C5.44294 19.4687 5.41638 19.3938 5.333 19.3151C5.12908 19.1225 4.94969 18.9087 4.77983 18.6679ZM6.6841 21.8138C6.71407 21.8765 6.74089 21.9409 6.77448 22.0016C7.44824 23.2202 8.45196 23.9115 9.90039 23.9036C10.2696 23.9016 10.6277 23.8525 10.9822 23.754C11.283 23.6704 11.56 23.8039 11.6571 24.0642C11.7601 24.3407 11.6378 24.6189 11.3446 24.7461C11.2167 24.8016 11.0799 24.8414 10.9435 24.8735C10.6376 24.9455 10.6263 24.9521 10.7582 25.2387C11.1955 26.1894 11.9363 26.7435 12.9903 26.9063C14.4673 27.1345 15.7585 26.0099 15.7618 24.5767C15.7747 18.9487 15.7662 13.3207 15.7688 7.69266C15.769 7.35747 15.7324 7.02875 15.6361 6.70956C15.4056 5.9458 14.979 5.36589 14.1296 5.18919C13.7008 5.09998 13.2745 5.12749 12.8525 5.21172C11.4791 5.48584 10.4563 6.18246 9.99591 7.54112C9.9095 7.79613 9.73909 7.93913 9.46571 7.98286C8.91712 8.07062 8.44522 8.3202 8.00953 8.65443C7.07434 9.37184 6.46867 10.9461 7.06488 12.108C7.21999 12.4103 7.11662 12.6355 6.8193 12.8318C5.53623 13.6788 4.95358 14.8598 5.08663 16.3757C5.17405 17.3718 5.61263 18.1861 6.40731 18.814C6.67358 19.0244 6.73049 19.2925 6.5752 19.5888C6.51346 19.7066 6.46569 19.8259 6.44262 19.9578C6.33203 20.5901 6.42514 21.1967 6.6841 21.8138ZM16.9374 23.1015C16.9375 23.5589 16.9416 24.0165 16.9368 24.4739C16.9285 25.2498 17.2341 25.8823 17.8176 26.397C18.7656 27.2332 20.4405 26.9723 20.9421 25.783C21.0594 25.505 21.2575 25.3794 21.5667 25.3923C21.9785 25.4094 22.3585 25.2931 22.7099 25.0824C23.5021 24.6073 23.8665 23.8785 23.9725 23.0041C24.0069 22.7206 24.118 22.5285 24.4099 22.4373C24.7713 22.3244 25.0819 22.1137 25.3569 21.8624C26.2843 21.0154 26.8013 19.9715 26.9008 18.7263C26.9835 17.6907 26.7899 16.744 26.0476 15.9545C25.8957 15.793 25.879 15.59 25.9627 15.3893C26.2972 14.5876 26.2472 13.7847 25.9209 13.0044C25.4876 11.968 24.7713 11.2204 23.6 10.9958C23.2935 10.937 23.1759 10.8222 23.129 10.5249C23.115 10.4362 23.1032 10.3469 23.0844 10.2592C22.9357 9.56744 22.5499 9.07728 21.8428 8.87007C21.4212 8.74652 21.3029 8.59531 21.3591 8.15756C21.4549 7.41112 21.2505 6.74432 20.8215 6.13874C20.2544 5.3382 19.2707 4.98514 18.4158 5.26097C17.6455 5.5095 16.9543 6.41469 16.9444 7.27692C16.9246 9.01667 16.9392 10.7568 16.9359 12.4968C16.9357 12.6352 16.9915 12.6751 17.125 12.6748C18.7468 12.6712 20.3685 12.6704 21.9903 12.6731C22.1261 12.6733 22.2046 12.6198 22.2844 12.5155C22.6317 12.0616 23.0945 11.8564 23.67 11.9641C24.1937 12.0622 24.5751 12.3565 24.741 12.8612C24.8995 13.3432 24.8408 13.8092 24.4982 14.2093C23.8814 14.9297 22.7114 14.8318 22.203 14.0216C22.1367 13.916 22.0892 13.8082 21.9252 13.8086C20.3316 13.8129 18.7381 13.8117 17.1446 13.8088C16.9904 13.8085 16.9343 13.8671 16.9354 14.0191C16.9405 14.747 16.9404 15.4749 16.9352 16.2027C16.9342 16.3538 16.9858 16.4123 17.1431 16.4117C18.2783 16.4076 19.4135 16.4083 20.5487 16.411C20.6605 16.4113 20.7262 16.3737 20.7841 16.2767C21.1036 15.7404 21.7236 15.4894 22.3229 15.6447C22.9244 15.8005 23.3579 16.3344 23.3679 16.9317C23.3786 17.5669 22.9855 18.1148 22.3929 18.2909C21.7751 18.4745 21.1152 18.2349 20.7807 17.6875C20.6931 17.5442 20.5949 17.4808 20.4283 17.4813C19.3495 17.4847 18.2707 17.4848 17.1919 17.481C17.0069 17.4803 16.9301 17.5384 16.9335 17.735C16.9446 18.3726 16.9445 19.0106 16.9334 19.6481C16.9299 19.8475 16.9921 19.9111 17.1967 19.9103C18.9313 19.9035 20.6658 19.9042 22.4004 19.909C22.5628 19.9094 22.6558 19.8599 22.7318 19.7162C22.9449 19.3134 23.5267 18.9068 24.1735 19.0242C24.8127 19.1404 25.2478 19.5641 25.35 20.2164C25.4388 20.7833 25.1026 21.4063 24.5688 21.6642C24.0065 21.9357 23.3067 21.8401 22.921 21.3371C22.6771 21.0192 22.4243 20.9852 22.0713 20.9887C20.4357 21.0047 18.7997 20.998 17.1639 20.9917C16.9915 20.991 16.931 21.0315 16.9338 21.209C16.9437 21.8258 16.9375 22.4429 16.9374 23.1015ZM24.0578 19.9925C23.7356 19.879 23.4332 20.2681 23.5144 20.5112C23.582 20.7136 23.7403 20.8355 23.9505 20.8294C24.1503 20.8236 24.3128 20.7017 24.353 20.5275C24.4086 20.2864 24.3348 20.1418 24.0578 19.9925ZM23.8107 13.44C23.8909 13.2573 23.8112 13.117 23.6782 13.0001C23.5452 12.8832 23.3876 12.87 23.2273 12.9408C23.0639 13.0129 22.9867 13.1443 22.9852 13.319C22.9834 13.5153 23.1006 13.662 23.308 13.7252C23.4919 13.7812 23.6584 13.6947 23.8107 13.44ZM22.3435 17.1534C22.431 16.8758 22.3678 16.6932 22.1496 16.5938C21.9602 16.5074 21.7406 16.5652 21.624 16.732C21.4911 16.9222 21.5301 17.1684 21.715 17.3062C21.9278 17.4648 22.1324 17.4226 22.3435 17.1534Z"
        fill="#A855F7" />
  <path d="M11.9153 18.3095C11.6763 18.1932 11.4378 18.1481 11.1875 18.1452C10.7037 18.1394 10.2188 18.1784 9.74432 18.0214C8.79856 17.7086 8.10789 16.8506 8.03954 15.8745C8.00999 15.4524 8.23885 15.1866 8.6173 15.2034C8.8989 15.2159 9.0795 15.4092 9.10734 15.7279C9.18252 16.5888 9.74923 17.1016 10.6328 17.1185C11.012 17.1258 11.3917 17.0898 11.7704 17.158C13.3543 17.4436 14.0926 19.2857 13.1141 20.5323C12.714 21.0422 12.1611 21.2683 11.5191 21.3053C11.26 21.3202 10.9968 21.2715 10.7419 21.3483C10.4095 21.4485 10.1385 21.6176 10.0442 21.9745C9.94253 22.3591 9.68967 22.541 9.36729 22.4591C9.06081 22.3813 8.91315 22.0684 9.02611 21.6995C9.26012 20.9353 9.81808 20.5178 10.5779 20.3226C10.8415 20.2549 11.1099 20.28 11.3766 20.2792C12.0062 20.2774 12.3672 19.9915 12.4893 19.3923C12.5687 19.0026 12.3378 18.5587 11.9153 18.3095Z"
        fill="#2563EB" />
  <path d="M12.0702 12.866C12.9624 13.262 13.3573 13.9644 13.4226 14.8762C13.4349 15.0485 13.4336 15.2234 13.4197 15.3956C13.3954 15.6953 13.16 15.9052 12.8768 15.8962C12.5816 15.8869 12.3925 15.6796 12.3803 15.3597C12.3732 15.1734 12.3931 14.9875 12.3569 14.8005C12.2407 14.2012 11.8835 13.8334 11.2738 13.7016C10.1022 13.4485 9.31068 12.4626 9.33537 11.2872C9.34207 10.968 9.49774 10.777 9.77521 10.7474C10.088 10.714 10.2652 10.8609 10.3471 11.1947C10.3808 11.3318 10.3641 11.4708 10.3963 11.606C10.546 12.2353 10.9672 12.5877 11.5896 12.7287C11.7476 12.7645 11.9041 12.8016 12.0702 12.866Z"
        fill="#41B883" />
  <path d="M13.4933 11.1409C13.3813 10.4415 12.8914 9.96454 12.1926 9.86089C11.8601 9.81158 11.6969 9.67727 11.6571 9.42022C11.6026 9.06855 11.8662 8.79032 12.2259 8.81985C13.4167 8.91759 14.4019 9.86885 14.5299 11.0349C14.5549 11.2624 14.5981 11.4877 14.5397 11.7143C14.4655 12.0019 14.2369 12.1781 13.9812 12.1513C13.717 12.1236 13.5451 11.9189 13.5257 11.6126C13.5161 11.4612 13.5464 11.3073 13.4933 11.1409Z"
        fill="#FF323D" />
</svg>